<?xml version="1.0" encoding="utf-8"?>
<svg xmlns="http://www.w3.org/2000/svg" viewBox="0 0 500 500">
  <path d="M 65.177 149.011 L 66.11 149.011 L 65.177 147.101 L 65.177 146.168 C 65.177 133.844 72.73 124.72 87.838 118.796 L 93.481 117.863 C 94.103 117.863 94.414 118.174 94.414 118.796 L 99.169 117.863 C 108.944 117.863 116.809 121.951 122.763 130.127 L 122.763 131.993 L 119.919 133.904 C 116.364 133.904 110.38 131.075 101.968 125.417 C 91.244 125.417 83.38 129.505 78.374 137.681 C 78.374 143.487 82.15 149.455 89.704 155.587 C 106.085 162.519 114.276 170.073 114.276 178.249 L 114.276 183.936 C 107.522 192.112 100.901 196.2 94.414 196.2 L 90.682 196.2 C 84.224 196.2 78.24 193.371 72.731 187.713 L 72.731 183.936 L 74.597 183.936 L 74.597 182.025 L 72.731 179.182 L 72.731 178.249 C 79.011 183.284 85.616 186.439 92.548 187.713 C 98.384 187.713 102.472 184.869 104.812 179.182 C 104.812 173.82 95.999 168.162 78.374 162.208 C 69.576 156.49 65.177 152.091 65.177 149.011 Z M 128.977 141.458 C 129.836 128.246 131.406 121.64 133.687 121.64 L 139.375 121.64 C 139.375 123.032 139.686 124.291 140.308 125.417 C 139.686 133.593 139.375 140.198 139.375 145.234 L 139.375 149.011 C 139.375 153.454 139.997 156.905 141.241 159.364 C 142.455 158.742 143.403 158.431 144.085 158.431 C 153.357 158.431 159.651 160.638 162.969 165.052 C 166.731 172.931 169.249 182.055 170.523 192.423 L 169.545 192.423 L 170.523 194.289 L 167.679 198.999 C 162.021 198.999 159.192 197.118 159.192 193.356 C 156.674 177.893 153.208 168.458 148.795 165.052 C 145.655 172.25 144.085 178.219 144.085 182.959 L 145.018 194.289 L 142.174 196.2 C 135.894 196.2 132.754 193.993 132.754 189.579 C 130.236 172.546 128.977 156.506 128.977 141.458 Z M 176.736 131.993 L 176.736 129.194 C 176.736 125.402 178.617 123.506 182.379 123.506 C 189.932 124.306 193.709 127.461 193.709 132.971 C 193.235 135.311 190.717 137.503 186.156 139.547 C 179.876 139.547 176.736 137.029 176.736 131.993 Z M 179.579 182.959 L 179.579 179.182 L 180.512 179.182 C 179.89 177.967 179.579 177.034 179.579 176.382 C 179.579 175.73 179.89 175.405 180.512 175.405 L 179.579 170.695 L 179.579 157.498 C 179.579 154.062 181.149 151.544 184.289 149.944 C 187.755 150.566 190.273 150.877 191.843 150.877 L 190.91 157.498 L 190.91 175.405 C 190.91 178.574 191.221 183.299 191.843 189.579 L 187.133 192.423 C 182.097 192.423 179.579 189.268 179.579 182.959 Z M 199.931 148.034 L 199.931 138.614 C 199.931 123.654 201.812 115.478 205.574 114.086 C 208.091 115.33 210.298 115.953 212.194 115.953 C 211.572 129.49 211.261 139.562 211.261 146.168 L 211.261 158.431 L 214.105 156.565 L 217.882 156.565 C 227.924 156.565 234.529 160.964 237.699 169.762 L 237.699 181.092 C 234.411 191.164 227.479 196.2 216.904 196.2 C 215.571 196.2 212.12 196.511 206.551 197.133 C 205.455 197.133 203.559 196.496 200.864 195.222 C 200.242 173.45 199.931 157.72 199.931 148.034 Z M 213.127 189.579 L 218.815 189.579 L 226.369 182.025 L 226.369 173.539 C 226.369 170.013 224.162 166.547 219.748 163.141 C 215.334 168.799 213.127 177.611 213.127 189.579 Z M 243.913 178.249 C 243.913 168.71 250.519 158.964 263.731 149.011 C 266.871 147.115 269.389 146.168 271.285 146.168 C 277.268 146.168 282.304 147.115 286.392 149.011 C 286.392 148.359 286.703 148.034 287.325 148.034 C 287.325 159.082 290.791 173.879 297.723 192.423 C 297.723 193.311 296.775 194.244 294.879 195.222 C 289.221 195.222 285.444 192.719 283.548 187.713 C 282.304 182.973 281.682 180.13 281.682 179.182 C 274.276 188.009 268.604 192.423 264.664 192.423 C 250.83 190.201 243.913 185.476 243.913 178.249 Z M 255.244 177.315 C 256.31 182.973 259.139 185.802 263.731 185.802 C 271.284 177.656 275.061 168.843 275.061 159.364 L 275.061 151.811 L 274.128 151.811 C 266.248 155.424 260.902 161.097 258.088 168.829 C 256.932 168.829 255.984 171.657 255.244 177.315 Z M 303.939 182.959 L 303.939 169.762 C 303.939 159.068 305.198 153.721 307.716 153.721 C 312.751 153.721 315.269 155.291 315.269 158.431 L 316.202 158.431 C 316.38 155.913 317.639 154.654 319.979 154.654 C 328.155 154.654 332.243 156.224 332.243 159.364 L 334.154 159.364 C 334.154 156.224 336.346 154.654 340.73 154.654 C 349.646 154.654 355.318 160.949 357.748 173.539 L 361.525 186.735 C 360.873 189.253 359.614 190.512 357.748 190.512 C 351.823 190.512 348.046 185.165 346.417 174.472 C 345.38 174.472 344.432 172.265 343.573 167.851 L 340.73 167.851 C 339.219 181.714 337.649 188.646 336.02 188.646 C 329.74 188.646 326.6 184.869 326.6 177.315 C 326.6 176.249 325.652 172.161 323.756 165.052 L 322.823 165.052 C 319.771 165.052 316.942 173.538 314.336 190.512 C 307.404 190.512 303.939 187.994 303.939 182.959 Z" style="fill: rgb(51, 51, 51); stroke-width: 13px; text-wrap-mode: nowrap;"/>
</svg>